<svg width="40" height="40" viewBox="0 0 40 40" fill="none" xmlns="http://www.w3.org/2000/svg">
<path d="M20 0C16.0444 0 12.1776 1.17298 8.8886 3.37061C5.59962 5.56823 3.03617 8.69181 1.52242 12.3463C0.00866559 16.0008 -0.387401 20.0222 0.384303 23.9018C1.15601 27.7814 3.06082 31.3451 5.85787 34.1421C8.65492 36.9392 12.2186 38.844 16.0982 39.6157C19.9778 40.3874 23.9992 39.9913 27.6537 38.4776C31.3082 36.9638 34.4318 34.4004 36.6294 31.1114C38.827 27.8224 40 23.9556 40 20C40 18.9778 39.9111 17.9556 39.7778 16.9778C38.6674 18.5348 37.2003 19.8032 35.4992 20.677C33.798 21.5508 31.9124 22.0044 30 22C27.456 22.0001 24.9778 21.1921 22.9227 19.6926C20.8676 18.1931 19.3419 16.0796 18.5656 13.6569C17.7894 11.2342 17.8027 8.62762 18.6037 6.21301C19.4047 3.79841 20.9519 1.70062 23.0222 0.222222C22.0444 0.0888887 21.0222 0 20 0Z" fill="#404040"/>
</svg>
