<svg width="28" height="20" viewBox="0 0 28 20" fill="none" xmlns="http://www.w3.org/2000/svg">
<path d="M26.9998 20H9.99979C9.73459 19.9999 9.48028 19.8946 9.29279 19.707L0.292786 10.707C0.105315 10.5195 0 10.2652 0 10C0 9.73484 0.105315 9.48053 0.292786 9.293L9.29279 0.293C9.48028 0.105451 9.73459 5.66374e-05 9.99979 0H26.9998C27.265 0 27.5194 0.105357 27.7069 0.292893C27.8944 0.48043 27.9998 0.734784 27.9998 1V19C27.9998 19.2652 27.8944 19.5196 27.7069 19.7071C27.5194 19.8946 27.265 20 26.9998 20ZM10.4138 18H25.9998V2H10.4138L2.41379 10L10.4138 18Z" fill="white"/>
<path d="M18.4138 10L22.9998 5.414L21.5858 4L16.9998 8.586L12.4138 4L10.9998 5.414L15.5858 10L10.9998 14.586L12.4138 16L16.9998 11.414L21.5858 16L22.9998 14.586L18.4138 10Z" fill="white"/>
</svg>
